<svg xmlns="http://www.w3.org/2000/svg" viewBox="0 0 128 128" role="img" aria-label="Pelota de padel">
  <defs>
    <radialGradient id="ball-base" cx="32%" cy="28%" r="72%">
      <stop offset="0%" stop-color="#fffedb"/>
      <stop offset="16%" stop-color="#f3ff94"/>
      <stop offset="42%" stop-color="#defb2d"/>
      <stop offset="75%" stop-color="#b3d200"/>
      <stop offset="100%" stop-color="#748800"/>
    </radialGradient>
    <radialGradient id="ball-light" cx="28%" cy="20%" r="42%">
      <stop offset="0%" stop-color="#ffffff" stop-opacity="0.92"/>
      <stop offset="48%" stop-color="#fffbd1" stop-opacity="0.24"/>
      <stop offset="100%" stop-color="#ffffff" stop-opacity="0"/>
    </radialGradient>
    <radialGradient id="ball-shadow" cx="74%" cy="78%" r="38%">
      <stop offset="0%" stop-color="#4a5d00" stop-opacity="0.34"/>
      <stop offset="100%" stop-color="#4a5d00" stop-opacity="0"/>
    </radialGradient>
    <filter id="felt-texture" x="-20%" y="-20%" width="140%" height="140%">
      <feTurbulence type="fractalNoise" baseFrequency="0.9" numOctaves="2" seed="7" result="noise"/>
      <feColorMatrix in="noise" type="matrix" values="
        1 0 0 0 0
        0 1 0 0 0
        0 0 1 0 0
        0 0 0 0.08 0" result="grain"/>
      <feBlend in="SourceGraphic" in2="grain" mode="soft-light"/>
    </filter>
    <filter id="seam-shadow" x="-20%" y="-20%" width="140%" height="140%">
      <feGaussianBlur stdDeviation="1.5"/>
    </filter>
    <clipPath id="ball-clip">
      <circle cx="64" cy="64" r="47.5"/>
    </clipPath>
  </defs>

  <circle cx="64" cy="64" r="50" fill="#d4ef19" opacity="0.18"/>
  <circle cx="64" cy="64" r="48" fill="url(#ball-base)" filter="url(#felt-texture)"/>
  <circle cx="64" cy="64" r="48" fill="url(#ball-light)"/>
  <circle cx="64" cy="64" r="48" fill="url(#ball-shadow)"/>
  <circle cx="64" cy="64" r="47" fill="none" stroke="#f7ffd1" stroke-opacity="0.22" stroke-width="1.6"/>

  <g clip-path="url(#ball-clip)">
    <path d="M39 22 C58 37 59 89 40 105" fill="none" stroke="#698000" stroke-opacity="0.42" stroke-width="8.5" stroke-linecap="round" filter="url(#seam-shadow)"/>
    <path d="M89 22 C70 37 69 89 88 105" fill="none" stroke="#698000" stroke-opacity="0.42" stroke-width="8.5" stroke-linecap="round" filter="url(#seam-shadow)"/>

    <path d="M39 22 C58 37 59 89 40 105" fill="none" stroke="#fbffd9" stroke-width="6" stroke-linecap="round"/>
    <path d="M89 22 C70 37 69 89 88 105" fill="none" stroke="#fbffd9" stroke-width="6" stroke-linecap="round"/>

    <path d="M39 22 C58 37 59 89 40 105" fill="none" stroke="#ffffff" stroke-opacity="0.28" stroke-width="1.2" stroke-linecap="round"/>
    <path d="M89 22 C70 37 69 89 88 105" fill="none" stroke="#ffffff" stroke-opacity="0.28" stroke-width="1.2" stroke-linecap="round"/>

    <ellipse cx="48" cy="34" rx="18" ry="11" fill="#ffffff" opacity="0.24"/>
  </g>
</svg>
